<?xml version="1.0" encoding="utf-8"?>
<!-- Generator: Adobe Illustrator 17.1.0, SVG Export Plug-In . SVG Version: 6.00 Build 0)  -->
<!DOCTYPE svg PUBLIC "-//W3C//DTD SVG 1.1//EN" "http://www.w3.org/Graphics/SVG/1.1/DTD/svg11.dtd">
<svg version="1.1" id="Layer_1" xmlns="http://www.w3.org/2000/svg" xmlns:xlink="http://www.w3.org/1999/xlink" x="0px" y="0px"
	 viewBox="0 0 100 100" enable-background="new 0 0 100 100" xml:space="preserve">
<g id="Layer_1_1_">
	<path fill="#A7A9AC" d="M100,50c0,27.6-22.4,50-50,50S0,77.6,0,50S22.4,0,50,0S100,22.4,100,50z"/>
	<g>
		<g>
			<path fill="#A7A9AC" d="M25.4,38.5c3.2,0,3.2-5,0-5S22.2,38.5,25.4,38.5L25.4,38.5z"/>
		</g>
	</g>
	<g>
		<g>
			<path fill="#A7A9AC" d="M29.6,36.2c3.2,0,3.2-5,0-5S26.4,36.2,29.6,36.2L29.6,36.2z"/>
		</g>
	</g>
	<g>
		<g>
			<path fill="#A7A9AC" d="M30.7,36.4c3.2,0,3.2-5,0-5C27.5,31.4,27.5,36.4,30.7,36.4L30.7,36.4z"/>
		</g>
	</g>
	<g>
		<g>
			<path fill="#A7A9AC" d="M30.7,36.4c3.2,0,3.2-5,0-5C27.5,31.4,27.5,36.4,30.7,36.4L30.7,36.4z"/>
		</g>
	</g>
	<g>
		<g>
			<path fill="#A7A9AC" d="M30.7,36.4c3.9-0.1,7.8-0.2,11.7-0.3c3.2-0.1,3.2-5.1,0-5c-3.9,0.1-7.8,0.2-11.7,0.3
				C27.5,31.5,27.5,36.5,30.7,36.4L30.7,36.4z"/>
		</g>
	</g>
	<g>
		<g>
			<path fill="#A7A9AC" d="M42.9,36.1c3.2,0,3.2-5,0-5C39.6,31.1,39.6,36.1,42.9,36.1L42.9,36.1z"/>
		</g>
	</g>
</g>
<g id="Layer_3">
	<g id="fCJqxb.tif">
		<g>
			<path d="M75.1,74.8c-1.2-0.3-2.3-0.5-3.4-0.8c-2.3-0.6-4.6-1.2-6.8-2.4c-0.2-0.1-0.5-0.1-0.7,0c-4.2,0.9-8.2,0.7-12.2-1.1
				c-3.3-1.5-5.7-3.8-7.1-7.2c-1.8-4.4-0.6-9.4,3.1-12.7c2.8-2.6,6.2-3.9,10-4.2c3.4-0.3,6.7,0.3,9.8,1.9c3.8,1.9,6.4,4.8,7.1,9.1
				c0.6,3.1-0.1,6-2,8.6c-0.4,0.5-0.5,1.1-0.4,1.7c0.3,1.9,0.9,3.7,1.7,5.4C74.6,73.6,74.8,74.1,75.1,74.8z M58.9,55.1
				c-2,0-3.8,0-5.7,0c0,0.1-0.1,0.1-0.1,0.1c0,1.6,0,3.3,0,4.9c0,0.1,0.3,0.3,0.4,0.3c0.6,0,1.2,0,1.9,0c-0.1,1.6-1,2.4-2.2,3.1
				c0.1,0.3,0.2,0.6,0.4,0.8c0.1,0.1,0.4,0.3,0.5,0.2c2.1-0.5,3.7-1.6,4.4-3.8C59.1,59,58.8,57.1,58.9,55.1z M66.8,55.1
				c-1.9,0-3.8,0-5.6,0c0,1.8,0,3.5,0,5.4c0.8,0,1.5,0,2.3,0c-0.1,1.5-1,2.4-2.2,3.1c0.1,0.3,0.2,0.6,0.4,0.8
				c0.1,0.1,0.4,0.3,0.5,0.2c2.2-0.6,3.7-1.9,4.4-4.1C67.1,58.8,66.8,57,66.8,55.1z"/>
			<path d="M32.1,60.8c2.8-0.8,5.3-2,7.7-3.3c0,0.6,0,1.1,0,1.6c0,0.8,0,1.6,0.2,2.4c0.1,0.5-0.1,0.7-0.5,0.8
				c-1.7,0.7-3.4,1.5-5.1,2.1c-2.9,0.9-5.9,1.5-8.8,2.3c-0.1,0-0.3,0-0.5,0.1c0.1-0.3,0.2-0.4,0.3-0.6c1.4-2.9,2.6-5.8,3.2-8.9
				c0-0.1,0-0.1,0-0.2c0.3-1.2,0.1-2.2-0.7-3.4c-4.6-6.5-3.8-15.4,1.9-21c3.9-3.9,8.6-6.1,14-6.8c6.1-0.8,11.8,0.2,17.1,3.3
				c2.9,1.7,5.2,4.1,7,7c1.6,2.5,2.2,5.2,2.3,8.2c0,0.1,0,0.3,0,0.4c-0.8-0.3-1.6-0.7-2.5-1c-0.4-0.2-0.9-0.4-1.4-0.5
				c-0.5-0.1-0.7-0.4-0.8-0.9c-0.6-3.4-2.4-6.1-5.1-8.2c-3.6-2.9-7.7-4.1-12.3-4.2c-4.1-0.1-7.9,0.7-11.5,2.9
				c-2.4,1.4-4.2,3.3-5.7,5.6c-2.1,3.6-2.3,7.3-0.5,10.9c0.7,1.5,1.9,2.7,3,4c0.2,0.3,0.4,0.5,0.3,0.9c-0.5,2-1,4-1.5,6
				C32.3,60.3,32.2,60.5,32.1,60.8z"/>
			<path d="M44.4,36.3c-1.3,0.6-2.3,1.4-2.4,3.1c0.8,0,1.6,0,2.4,0c0,0.2,0.1,0.3,0.1,0.5c0,1.6,0,3.1,0,4.7c0,0.4-0.1,0.5-0.5,0.5
				c-1.7,0-3.4,0-5.1,0c-0.3,0-0.5-0.1-0.5-0.4c0-1.4,0-2.9,0.1-4.3c0.2-2.5,2.2-4.6,4.6-5.2c0.5-0.1,0.8-0.1,1,0.5
				C44.2,35.8,44.3,36,44.4,36.3z"/>
			<path d="M47,45c0-1.7-0.2-3.4,0-5c0.3-2.5,2.2-4.4,4.6-4.9c0.3-0.1,0.5,0,0.6,0.3c0.1,0.3,0.2,0.5,0.4,0.9
				c-0.9,0.4-1.7,1-2.1,1.9c-0.1,0.3-0.2,0.7-0.3,1.2c0.9,0,1.6,0,2.4,0c0,1.9,0,3.7,0,5.6C50.8,45,48.9,45,47,45z"/>
		</g>
	</g>
</g>
</svg>
