<?xml version="1.0" encoding="utf-8"?>
<!-- Generator: Adobe Illustrator 17.1.0, SVG Export Plug-In . SVG Version: 6.00 Build 0)  -->
<!DOCTYPE svg PUBLIC "-//W3C//DTD SVG 1.1//EN" "http://www.w3.org/Graphics/SVG/1.1/DTD/svg11.dtd">
<svg version="1.1" id="Layer_1" xmlns="http://www.w3.org/2000/svg" xmlns:xlink="http://www.w3.org/1999/xlink" x="0px" y="0px"
	 viewBox="0 0 100 100" enable-background="new 0 0 100 100" xml:space="preserve">
<g id="Layer_1_1_">
	<circle fill="#A7A9AC" cx="50" cy="50" r="50"/>
</g>
<g id="Layer_2">
	<g id="ddZW8y.tif">
		<g>
			<path d="M50.4,80.3C33.3,80.3,20,67,20.1,50c0.1-16.4,13.7-29.6,30.4-29.6c16.7,0,30.3,13.4,30.2,29.8
				C80.7,67,67.3,80.3,50.4,80.3z M50.5,25.1c-14.2,0-25.6,11.1-25.7,24.9C24.7,64.4,36,75.7,50.4,75.7C64.6,75.7,76,64.5,76,50.2
				C76,36.4,64.6,25.1,50.5,25.1z"/>
			<path d="M50.4,59.9c-0.9,0-1.7,0-2.6,0c-0.4,0-1-0.1-1.2-0.3c-1.9-2.2-3.9-4.4-5.6-6.8c-3.3-4.8-2.5-10.8,1.8-14.6
				c4.3-3.8,10.8-3.8,15.1,0c4.4,3.8,5.2,9.8,1.8,14.6c-0.9,1.4-2.3,2.4-3.5,3.7c-0.3,0.3-0.7,0.5-0.9,0.9
				C53.6,59.9,53.6,59.9,50.4,59.9z"/>
			<path d="M46.8,61.8c2.5,0,4.9,0,7.2,0c-0.2,2.3-1.3,3.5-3.2,3.6C48.7,65.6,47.3,64.4,46.8,61.8z"/>
		</g>
	</g>
</g>
</svg>
