<?xml version="1.0" encoding="utf-8"?>
<!-- Generator: Adobe Illustrator 17.1.0, SVG Export Plug-In . SVG Version: 6.00 Build 0)  -->
<!DOCTYPE svg PUBLIC "-//W3C//DTD SVG 1.1//EN" "http://www.w3.org/Graphics/SVG/1.1/DTD/svg11.dtd">
<svg version="1.1" id="Layer_1" xmlns="http://www.w3.org/2000/svg" xmlns:xlink="http://www.w3.org/1999/xlink" x="0px" y="0px"
	 viewBox="0 0 100 100" enable-background="new 0 0 100 100" xml:space="preserve">
<g id="Layer_1_1_">
	<circle fill="#A7A9AC" cx="50" cy="50" r="50"/>
</g>
<g id="Layer_2">
	<g id="nFKDhu.tif">
		<g>
			<path d="M57.1,30.9c-0.9,1.2-1.5,2.2-2.4,3.2c-0.2,0.3-0.9,0.3-1.3,0.3c-9.3,0-18.6,0-27.9,0c-0.5,0-1,0-1.6,0c0,9.6,0,19,0,28.5
				c17.6,0,35.2,0,52.9,0c0-9.4,0-18.9,0-28.5c-3.1,0-6.1,0-9.2,0c0-0.1-0.1-0.2-0.1-0.3c1-1,1.9-2.1,2.9-3.1c0.2-0.2,0.7-0.2,1-0.2
				c2.2,0,4.3,0,6.5,0c1.8,0,2.6,0.9,2.7,2.7c0,11.4,0,22.8,0,34.3c0,1.7-0.9,2.6-2.6,2.6c-1,0-2.1,0-3.1,0c-16.9,0-33.8,0-50.7,0
				c-0.4,0-0.9,0-1.3,0c-1.7-0.1-2.6-1-2.6-2.7c0-5.1,0-10.1,0-15.2c0-6.3,0-12.5,0-18.8c0-1.9,0.9-2.8,2.8-2.8c11,0,22,0,33.1,0
				C56.3,30.8,56.6,30.8,57.1,30.9z"/>
			<path d="M71.6,25.4c0,1.5-0.7,2.7-1.7,3.8c-6.3,6.8-12.7,13.6-19,20.4c-0.5,0.5-1,1-1.4,1.6c-0.6,0.8-1.1,0.8-1.9,0.2
				c-1.8-1.4-1.8-1.4-0.4-3.3c5.6-7.7,11.1-15.5,16.6-23.3c0.9-1.2,1.8-2.2,3.3-2.7C69.6,21.4,71.7,22.8,71.6,25.4z M65.7,25.1
				c0.8-0.7,1.5-1.4,2.3-2.2c-1.2,0-2.2,0.5-3,1.6C65.4,24.8,65.7,25.1,65.7,25.1z"/>
			<path d="M41.1,78.5c0.3-0.4,0.5-0.6,0.6-0.7c1.5-0.9,2.1-2.2,2.2-3.9c0-0.9,0.5-1.2,1.4-1.2c3.4,0,6.7,0.1,10.1,0
				c0.9,0,1.4,0.2,1.4,1.2c0.1,1.6,0.6,2.9,2,3.7c0.3,0.2,0.4,0.4,0.8,0.9C53.3,78.5,47.3,78.5,41.1,78.5z"/>
			<path d="M35.9,57c0.4,0,0.7,0,1.1,0c1.9,0,3.1-0.9,3.7-2.7c0.1-0.3,0.2-0.6,0.3-0.9c0.7-2,1.6-2.6,3.4-2.5
				c1.8,0.1,3.8,1.7,3.9,3.2c0,0.6-0.3,1.3-0.7,1.7c-0.5,0.5-1.3,0.8-2,1c-2.9,0.9-6,1-9,0.6c-0.2,0-0.5-0.1-0.7-0.2
				C35.9,57.2,35.9,57.1,35.9,57z"/>
			<path fill="#FFFFFF" d="M65.7,25.1c-0.1-0.1-0.4-0.3-0.7-0.6c0.8-1.1,1.8-1.6,3-1.6C67.3,23.7,66.5,24.4,65.7,25.1z"/>
		</g>
	</g>
</g>
</svg>
