<?xml version="1.0" encoding="utf-8"?>
<!-- Generator: Adobe Illustrator 17.1.0, SVG Export Plug-In . SVG Version: 6.00 Build 0)  -->
<!DOCTYPE svg PUBLIC "-//W3C//DTD SVG 1.1//EN" "http://www.w3.org/Graphics/SVG/1.1/DTD/svg11.dtd">
<svg version="1.1" id="Layer_1" xmlns="http://www.w3.org/2000/svg" xmlns:xlink="http://www.w3.org/1999/xlink" x="0px" y="0px"
	 viewBox="0 0 100 100" enable-background="new 0 0 100 100" xml:space="preserve">
<path id="github" d="M17.6,73c0.1-0.3,0.5-0.3,0.9-0.2c0.4,0.2,0.6,0.5,0.4,0.8c-0.1,0.3-0.5,0.3-0.9,0.2
	C17.7,73.6,17.5,73.3,17.6,73L17.6,73z M20,75.7c-0.3-0.4-0.4-0.8-0.1-1.1c0.2-0.2,0.7-0.1,1,0.2c0.3,0.4,0.4,0.8,0.1,1.1
	C20.7,76.2,20.3,76,20,75.7L20,75.7z M21.8,78.4c-0.3-0.5-0.3-1,0-1.2c0.3-0.2,0.8,0,1.1,0.4c0.3,0.5,0.3,1,0,1.2
	C22.6,79.1,22.1,78.9,21.8,78.4L21.8,78.4z M24.4,81.5c-0.4-0.4-0.6-1-0.3-1.3c0.3-0.3,0.9-0.2,1.3,0.2c0.4,0.4,0.6,1,0.3,1.3
	C25.4,82,24.8,82,24.4,81.5L24.4,81.5z M27.3,82.7c0.1-0.4,0.7-0.6,1.3-0.4c0.6,0.2,0.9,0.6,0.8,1c-0.1,0.4-0.7,0.6-1.2,0.4
	C27.6,83.6,27.2,83.2,27.3,82.7L27.3,82.7z M31.3,83.7c0-0.4,0.5-0.8,1.1-0.8c0.6,0,1.1,0.3,1.1,0.7c0,0.4-0.5,0.8-1.1,0.8
	C31.8,84.5,31.3,84.1,31.3,83.7L31.3,83.7z M35.1,83.4c-0.1-0.4,0.3-0.8,0.9-1c0.6-0.1,1.1,0.1,1.2,0.6c0.1,0.4-0.3,0.8-0.9,0.9
	C35.8,84.1,35.2,83.8,35.1,83.4L35.1,83.4z M65.8,99.9c-2.5,0.5-3.4-1.1-3.4-2.5c0-1.7,0.1-7.2,0.1-14.1c0-4.8-1.6-7.9-3.4-9.5
	c11.1-1.3,22.8-5.6,22.8-25.3c0-5.6-1.9-10.2-5.1-13.8c0.5-1.3,2.2-6.5-0.5-13.6c0,0-4.2-1.4-13.7,5.3c-4-1.1-8.3-1.7-12.5-1.7
	c-4.2,0-8.5,0.6-12.5,1.7c-9.6-6.6-13.7-5.3-13.7-5.3c-2.7,7.1-1,12.3-0.5,13.6c-3.2,3.6-5.1,8.2-5.1,13.8c0,19.6,11.7,24,22.8,25.3
	c-1.4,1.3-2.7,3.5-3.2,6.9c-2.9,1.3-10.1,3.6-14.5-4.3c0,0-2.6-4.9-7.7-5.3c0,0-4.9-0.1-0.3,3.1c0,0,3.3,1.6,5.5,7.5
	c0,0,2.9,9.1,16.8,6c0,4.3,0.1,8.3,0.1,9.5c0,1.4-0.9,2.9-3.4,2.5C14.3,93.1,0,73.9,0,51.3C0,23,22.4,0,50,0s50,23,50,51.3
	C100,73.9,85.7,93.1,65.8,99.9L65.8,99.9z"/>
</svg>
