<?xml version="1.0" encoding="utf-8"?>
<!-- Generator: Adobe Illustrator 17.1.0, SVG Export Plug-In . SVG Version: 6.00 Build 0)  -->
<!DOCTYPE svg PUBLIC "-//W3C//DTD SVG 1.1//EN" "http://www.w3.org/Graphics/SVG/1.1/DTD/svg11.dtd">
<svg version="1.1" id="Layer_1" xmlns="http://www.w3.org/2000/svg" xmlns:xlink="http://www.w3.org/1999/xlink" x="0px" y="0px"
	 viewBox="0 0 100 100" enable-background="new 0 0 100 100" xml:space="preserve">
<path id="twitter" d="M88.2,22.8c4.2-2.5,7.5-6.4,9-11.1c-4,2.3-8.3,3.9-13,4.8c-3.7-3.9-9.1-6.4-15-6.4c-11.3,0-20.5,9-20.5,20.1
	c0,1.6,0.2,3.1,0.5,4.6c-17-0.7-32.1-8.7-42.2-20.9c-1.8,3-2.8,6.4-2.8,10.1c0,7,3.6,13.1,9.1,16.7c-3.4-0.1-6.5-1-9.3-2.5v0.3
	c0,9.8,7.1,17.8,16.4,19.7C18.7,58.7,16.9,59,15,59c-1.3,0-2.6-0.1-3.9-0.4c2.6,8,10.2,13.8,19.1,14c-7,5.4-15.9,8.6-25.5,8.6
	c-1.7,0-3.3-0.1-4.9-0.3c9.1,5.7,19.9,9,31.4,9c37.7,0,58.3-30.6,58.3-57.1c0-0.9,0-1.7-0.1-2.6c4-2.9,7.5-6.4,10.2-10.4
	C96.3,21.3,92.3,22.3,88.2,22.8z"/>
</svg>
