<?xml version="1.0" encoding="utf-8"?>
<!-- Generator: Adobe Illustrator 17.1.0, SVG Export Plug-In . SVG Version: 6.00 Build 0)  -->
<!DOCTYPE svg PUBLIC "-//W3C//DTD SVG 1.1//EN" "http://www.w3.org/Graphics/SVG/1.1/DTD/svg11.dtd">
<svg version="1.1" id="Layer_1" xmlns="http://www.w3.org/2000/svg" xmlns:xlink="http://www.w3.org/1999/xlink" x="0px" y="0px"
	 viewBox="0 0 100 100" enable-background="new 0 0 100 100" xml:space="preserve">
<path id="twitter" d="M88.2,19.6c4.2-2.8,7.5-7.2,9-12.4c-4,2.6-8.3,4.4-13,5.4c-3.7-4.4-9.1-7.1-15-7.1c-11.3,0-20.5,10-20.5,22.4
	c0,1.8,0.2,3.5,0.5,5.1C32.2,32.2,17.1,23.3,7,9.7C5.2,13,4.2,16.9,4.2,21c0,7.8,3.6,14.6,9.1,18.7c-3.4-0.1-6.5-1.1-9.3-2.8v0.3
	c0,10.9,7.1,19.9,16.4,22c-1.7,0.5-3.5,0.8-5.4,0.8c-1.3,0-2.6-0.1-3.9-0.4c2.6,8.9,10.2,15.4,19.1,15.6c-7,6-15.9,9.6-25.5,9.6
	c-1.7,0-3.3-0.1-4.9-0.3c9.1,6.4,19.9,10.1,31.4,10.1c37.7,0,58.3-34.2,58.3-63.8c0-1,0-1.9-0.1-2.9c4-3.2,7.5-7.1,10.2-11.6
	C96.3,17.9,92.3,19.1,88.2,19.6z"/>
</svg>
